HIERARCHY
ROOT root
{
	OFFSET 0.000000 0.000000 0.000000
	CHANNELS 6 Xposition Yposition Zposition Zrotation Yrotation Xrotation
	JOINT lhip
	{
		OFFSET 0.058581 -0.082280 -0.017664
		CHANNELS 3 Zrotation Yrotation Xrotation
		JOINT lknee
		{
			OFFSET 0.043451 -0.386469 0.008037
			CHANNELS 3 Zrotation Yrotation Xrotation
			JOINT lankle
			{
				OFFSET -0.014790 -0.426874 -0.037428
				CHANNELS 3 Zrotation Yrotation Xrotation
				JOINT ltoe
				{
					OFFSET 0.041054 -0.060286 0.122042
					CHANNELS 3 Zrotation Yrotation Xrotation
					End Site
					{
						OFFSET 0.000000 0.000000 0.000000
					}
				}
			}
		}
	}
	JOINT rhip
	{
		OFFSET -0.060310 -0.090513 -0.013543
		CHANNELS 3 Zrotation Yrotation Xrotation
		JOINT rknee
		{
			OFFSET -0.043257 -0.383688 -0.004843
			CHANNELS 3 Zrotation Yrotation Xrotation
			JOINT rankle
			{
				OFFSET 0.019056 -0.420046 -0.034562
				CHANNELS 3 Zrotation Yrotation Xrotation
				JOINT rtoe
				{
					OFFSET -0.034840 -0.062106 0.130323
					CHANNELS 3 Zrotation Yrotation Xrotation
					End Site
					{
						OFFSET 0.000000 0.000000 0.000000
					}
				}
			}
		}
	}
	JOINT lowerback
	{
		OFFSET 0.004439 0.124404 -0.038385
		CHANNELS 3 Zrotation Yrotation Xrotation
		JOINT upperback
		{
			OFFSET 0.004488 0.137956 0.026820
			CHANNELS 3 Zrotation Yrotation Xrotation
			JOINT chest
			{
				OFFSET -0.002265 0.056032 0.002855
				CHANNELS 3 Zrotation Yrotation Xrotation
				JOINT lowerneck
				{
					OFFSET -0.013390 0.211636 -0.033468
					CHANNELS 3 Zrotation Yrotation Xrotation
					JOINT upperneck
					{
						OFFSET 0.010113 0.088937 0.050410
						CHANNELS 3 Zrotation Yrotation Xrotation
						End Site
						{
							OFFSET 0.000000 0.000000 0.000000
						}
					}
				}
				JOINT lclavicle
				{
					OFFSET 0.071702 0.114000 -0.018898
					CHANNELS 3 Zrotation Yrotation Xrotation
					JOINT lshoulder
					{
						OFFSET 0.122921 0.045205 -0.019046
						CHANNELS 3 Zrotation Yrotation Xrotation
						JOINT lelbow
						{
							OFFSET 0.255332 -0.015649 -0.022946
							CHANNELS 3 Zrotation Yrotation Xrotation
							JOINT lwrist
							{
								OFFSET 0.265709 0.012698 -0.007375
								CHANNELS 3 Zrotation Yrotation Xrotation
								End Site
								{
									OFFSET 0.000000 0.000000 0.000000
								}
							}
						}
					}
				}
				JOINT rclavicle
				{
					OFFSET -0.082954 0.112472 -0.023707
					CHANNELS 3 Zrotation Yrotation Xrotation
					JOINT rshoulder
					{
						OFFSET -0.113228 0.046853 -0.008472
						CHANNELS 3 Zrotation Yrotation Xrotation
						JOINT relbow
						{
							OFFSET -0.260127 -0.014369 -0.031269
							CHANNELS 3 Zrotation Yrotation Xrotation
							JOINT rwrist
							{
								OFFSET -0.269108 0.006794 -0.006027
								CHANNELS 3 Zrotation Yrotation Xrotation
								End Site
								{
									OFFSET 0.000000 0.000000 0.000000
								}
							}
						}
					}
				}
			}
		}
	}
}
MOTION
Frames: 14
Frame Time: 0.033333
-0.344640 2.253565 0.990266 -174.375722 -0.094177 74.960961 0.470406 2.265292 14.512790 -5.115716 3.653947 47.717883 -0.014894 13.538903 -12.375012 0.000000 -0.000000 0.000000 4.393604 2.556007 -10.546904 -0.858131 0.065104 29.567799 3.874345 -9.475980 -4.548838 0.000000 -0.000000 0.000000 -0.065188 -5.170303 11.928010 -0.945640 1.986272 -1.465986 -0.363699 -1.703729 3.613172 1.263083 -8.459172 -9.149721 4.337240 4.400108 9.268490 -30.622342 8.671666 -3.178457 -57.574088 -17.083064 16.986155 152.281301 -70.088136 -157.444040 16.186581 -8.056188 -44.090041 25.094209 -4.110213 -3.350357 46.181556 -8.279361 22.978117 8.545020 67.154294 14.135552 1.132694 14.986153 13.969653 
-0.342319 2.282900 0.994632 -173.629236 -0.503519 74.266246 0.610886 -1.130439 3.334996 -2.241181 8.844447 70.174951 0.833054 13.414197 -12.989416 0.000000 -0.000000 0.000000 4.297170 0.075362 -6.291576 -0.949304 1.334069 27.315000 2.522925 -8.943601 -5.613968 0.000000 -0.000000 0.000000 -0.251882 -2.425540 13.526489 -0.766802 0.263973 -2.216684 -0.203764 -2.084389 3.416100 0.568814 -10.028061 -8.869271 5.431401 5.056807 9.421411 -30.759821 7.169111 -2.793595 -56.535104 -16.686502 16.096330 155.728092 -69.424583 -159.775707 15.804523 -8.835699 -43.332420 24.651677 -3.673118 -3.095226 45.978590 -9.544729 22.211663 10.211000 68.904360 16.499001 1.149403 15.058869 12.764693 
-0.340533 2.311727 0.999978 -173.008586 -0.766376 71.922867 1.696771 -3.455160 -5.542591 -0.846051 11.299603 90.118976 -1.066185 9.743578 -17.036664 0.000000 -0.000000 0.000000 4.147710 -1.842760 -0.322290 -1.458658 2.203432 24.769484 3.148733 -8.626881 -6.430008 0.000000 -0.000000 0.000000 -0.488104 -0.306496 17.559188 -0.592766 -1.110953 -3.772278 0.167943 -2.167961 3.535120 0.005331 -11.284945 -8.681373 6.232268 5.663827 9.335305 -30.786570 6.534709 -2.679348 -56.889290 -16.835738 15.225409 156.567950 -69.273804 -159.591326 16.221485 -8.942646 -44.020819 24.031983 -3.075164 -3.547348 45.983047 -9.921512 21.542897 10.674901 68.336953 17.942754 1.208798 14.786946 13.183931 
-0.340825 2.338031 1.004033 -173.813356 -1.840322 70.326900 3.124764 -5.764633 -14.424275 1.058563 14.838289 107.439555 -2.313165 6.612941 -20.764263 0.000000 -0.000000 0.000000 3.867541 -2.316897 3.605649 -2.452417 3.831389 23.754103 3.645745 -8.752530 -7.543842 0.000000 -0.000000 0.000000 -1.164456 1.872807 20.859448 -0.361878 -1.821594 -5.401549 0.520753 -1.586632 3.571000 -0.901212 -12.045572 -7.830054 6.817072 6.067707 8.040845 -30.407807 6.442875 -2.591650 -57.479125 -16.546854 15.027250 155.801668 -69.456926 -159.357692 17.401671 -8.195000 -44.958212 23.453417 -2.806355 -3.782293 45.809316 -10.229411 21.348661 10.039889 68.485453 17.454305 0.471201 14.537472 13.003368 
-0.341380 2.364001 1.006190 -174.578983 -3.161196 69.260277 5.251113 -7.410403 -22.733661 2.272156 17.369961 121.246826 -2.657968 3.930639 -23.692515 0.000000 -0.000000 0.000000 2.715633 -3.617542 6.996343 -3.149636 5.532092 22.728191 3.821585 -8.172850 -8.949081 0.000000 -0.000000 0.000000 -1.960359 4.212208 22.811969 -0.217710 -2.709129 -6.386527 0.763638 -1.190702 3.755267 -1.665466 -12.349237 -6.962354 7.556408 6.513433 7.091205 -30.097772 5.769920 -2.324405 -56.756467 -15.756303 14.224136 156.754350 -69.315539 -159.471172 18.396134 -8.207176 -44.875646 22.823784 -2.284381 -3.674417 45.848139 -10.916348 20.768101 11.006778 69.604228 19.204012 -0.086379 14.390342 11.731552 
-0.341668 2.391719 1.007737 -175.047880 -3.901243 68.212412 7.759377 -8.041962 -29.547430 2.360707 18.545712 130.017380 -2.651775 1.869959 -25.153478 0.000000 -0.000000 0.000000 1.343660 -5.280486 10.758184 -3.138840 6.885234 21.360696 4.053410 -7.446273 -10.334513 0.000000 -0.000000 0.000000 -2.424631 6.005352 24.055194 -0.066441 -3.422542 -7.224855 0.938671 -0.952539 4.214363 -2.009108 -12.570462 -6.455071 8.155962 6.735044 7.274531 -29.770498 5.932644 -2.206965 -56.675115 -15.169175 13.588168 159.163013 -69.383019 -161.117327 18.942209 -7.884730 -45.772628 22.283852 -2.269210 -3.790933 45.907338 -11.353421 20.275080 13.776738 69.845427 22.846956 -0.097439 14.250852 11.041499 
-0.341889 2.420069 1.009065 -175.647954 -4.288420 67.542119 9.821509 -7.968165 -34.572905 2.510615 19.115115 132.343061 -1.948296 1.689411 -26.135720 0.000000 -0.000000 0.000000 0.336539 -6.328485 14.168527 -2.967363 7.844097 20.147469 4.225204 -6.997553 -11.628965 0.000000 -0.000000 0.000000 -2.668030 7.264204 24.442762 0.050446 -3.811414 -7.623178 1.047970 -0.706764 4.457017 -2.278131 -12.818548 -6.118724 8.400993 6.583605 7.567164 -29.883222 6.455926 -2.226983 -56.777154 -14.762757 13.173300 160.612389 -69.381328 -162.176983 19.264793 -7.387852 -46.502536 22.297796 -2.463381 -3.739098 45.839293 -11.608995 19.886295 15.528655 69.545775 24.982543 -0.235869 14.348863 10.827574 
-0.343018 2.447650 1.009949 -175.853116 -4.163955 67.398346 10.241962 -7.595040 -37.881708 2.941783 19.136130 127.828610 -0.504132 3.149126 -26.729650 0.000000 -0.000000 0.000000 -0.218304 -7.170377 16.909291 -2.683467 8.230678 19.123214 4.425677 -6.867575 -12.845177 0.000000 -0.000000 0.000000 -2.345268 7.779606 24.110629 0.046631 -4.267549 -7.685682 0.990225 -0.595045 4.527545 -2.484438 -12.944245 -6.063292 8.357965 6.437670 7.681902 -30.131442 6.763488 -2.286588 -56.715387 -14.373453 12.926145 161.120381 -69.394754 -162.514179 19.407348 -6.995770 -46.637079 22.365319 -2.673875 -3.621506 45.905587 -11.755994 19.771361 16.567150 69.239153 26.021468 -0.544090 14.656402 10.900720 
-0.344191 2.474357 1.009385 -175.649716 -3.768037 67.448084 9.002034 -7.293021 -38.546199 2.389063 19.147160 117.278139 0.791908 4.686932 -26.859219 0.000000 -0.000000 0.000000 -0.579166 -8.056308 19.100191 -2.309194 8.098207 18.676657 4.705137 -6.763291 -14.070139 0.000000 -0.000000 0.000000 -1.892696 7.942634 23.297955 -0.016108 -4.745852 -7.033479 1.003224 -0.608058 4.514769 -2.397117 -12.821415 -6.434920 8.258687 6.234806 7.721957 -30.202595 6.568285 -2.471577 -56.710490 -14.074910 13.101421 161.206931 -69.467632 -162.830013 19.453223 -6.750427 -46.546290 22.336620 -2.693504 -3.584013 46.038722 -11.834639 19.774328 17.383316 69.205385 26.458357 -0.555358 14.982185 11.264172 
-0.345319 2.500320 1.006837 -175.669152 -3.452623 67.648648 6.564304 -6.351788 -35.997999 0.279495 18.371202 101.779165 1.990418 6.547132 -26.753054 0.000000 -0.000000 0.000000 -1.007195 -9.064025 20.600910 -1.978934 7.919726 19.148112 4.956385 -6.379698 -15.476362 0.000000 -0.000000 0.000000 -1.440471 7.741072 22.454889 -0.371481 -4.772106 -6.303877 0.994039 -0.547600 4.483981 -1.892182 -12.348300 -7.097981 8.098133 5.848214 8.032671 -30.294374 6.265977 -2.958543 -56.426934 -13.845740 13.269734 161.620314 -69.437926 -163.344021 19.267318 -6.901995 -46.230716 22.368763 -2.560701 -3.620199 46.230977 -11.863331 19.705146 18.104149 69.114220 26.680907 -0.298576 15.402586 11.887348 
-0.347130 2.526066 1.001985 -175.969213 -3.082823 68.179037 3.972161 -5.188156 -31.042392 -2.743211 16.126785 82.666472 2.932113 8.607473 -26.112308 0.000000 -0.000000 0.000000 -1.123631 -9.838694 21.431006 -1.722305 7.742274 20.215648 5.045303 -6.232394 -17.018862 0.000000 -0.000000 0.000000 -0.778069 7.054826 21.109349 -0.871767 -4.368131 -5.329540 0.883915 -0.388128 4.421998 -1.445707 -11.746366 -7.698718 7.720735 5.520424 8.476792 -30.551338 6.133193 -3.548285 -56.201546 -13.720680 13.431592 161.423386 -69.370977 -163.233344 19.182752 -6.960573 -45.916683 22.336647 -2.382578 -3.620250 46.464754 -11.714153 19.531219 18.319110 68.921022 26.443411 0.014778 15.875162 12.617802 
-0.350253 2.552118 0.995524 -176.264584 -2.573120 69.113296 1.690574 -4.604914 -24.479639 -5.940603 12.009741 61.306171 3.277579 10.519871 -25.032827 0.000000 -0.000000 0.000000 -0.841624 -10.025225 21.857055 -1.445589 7.881042 21.470587 5.204265 -6.314674 -18.602986 0.000000 -0.000000 0.000000 0.107853 6.081314 18.942226 -1.322487 -3.730850 -3.937536 0.705184 -0.222705 4.253285 -1.210988 -11.250093 -8.014131 7.162453 5.194223 8.862464 -30.948011 6.071980 -4.069275 -56.106209 -13.486186 13.895814 160.484404 -69.343189 -162.534654 19.180372 -6.859432 -45.537708 22.205949 -2.223669 -3.576140 46.522962 -11.687673 19.407362 18.246540 68.853687 25.899106 0.305896 16.288235 13.151552 
-0.354359 2.579276 0.988077 -176.393734 -1.934157 70.464677 -0.176021 -5.387131 -16.904768 -7.227487 6.759502 39.925876 3.264831 12.971389 -23.980482 0.000000 -0.000000 0.000000 -0.119471 -9.437150 21.977028 -1.042184 7.907599 22.781508 5.657181 -6.649428 -19.936338 0.000000 -0.000000 0.000000 1.063964 4.956286 15.791663 -1.691436 -2.962468 -2.072989 0.402582 -0.119340 3.905844 -0.840584 -10.729178 -7.882170 6.585100 4.817821 9.033788 -31.269791 6.130695 -4.339032 -55.969922 -13.238897 14.634661 159.356393 -69.280139 -161.635328 18.815671 -7.195651 -45.047861 21.943288 -2.167173 -3.299843 46.589587 -11.722111 19.547092 17.644988 68.784521 25.076341 0.464746 16.711718 13.469927 
-0.358430 2.607705 0.979777 -176.205010 -1.118863 72.313559 -1.758863 -6.702358 -10.374406 -5.874076 1.851466 23.212670 2.836922 14.938954 -22.673506 0.000000 -0.000000 0.000000 1.281421 -8.499604 21.125480 -0.839278 7.226671 24.971151 6.591725 -7.221486 -20.646473 0.000000 -0.000000 0.000000 1.837096 3.815104 12.054180 -1.770669 -2.224574 -0.549101 0.101614 -0.169927 3.415831 -0.324285 -10.287473 -7.465986 5.934433 4.477631 9.611344 -31.419089 6.405491 -4.284979 -56.044765 -13.042616 15.518144 158.015410 -69.117375 -160.458531 18.319057 -7.692434 -44.359761 21.666749 -2.386058 -3.019334 46.475258 -11.957579 19.949534 17.205255 68.771067 24.577510 0.573884 17.066074 13.601470 
